# xmcd
#
# Track frame offsets:
#  150
#  13492
#  27282
#  40940
#  51827
#  65582
#  78407
#  91187
#  104732
#  116175
#  138087
#  151045
#  164170
#  178637
#  196832
#  210932
#  228107
#  244637
#
# Disc length: 3472 seconds
#
# Revision: 3
# Processed by: cddbd v1.5.1PL2 Copyright (c) Steve Scherf et al.
# Submitted via: Collectorz.com_Music_Collector 6.9
#
DISCID=ed0d8e12
DTITLE=Tanya Tucker - Greatest Hits [Disc 1]
DYEAR=1997
DGENRE=Country
TTITLE0=Delta Dawn
TTITLE1=What's Your Mama's Name?
TTITLE2=Blood Red and Goin' Down
TTITLE3=Would You Lay With Me (In a Field of Stone)?
TTITLE4=Lizzie and The Rainman
TTITLE5=San Antonio Stroll
TTITLE6=Don't Believe My Heart Can Stand Another You
TTITLE7=Here's Some Love
TTITLE8=It's a Cowboy Lovin' Night
TTITLE9=Texas (When I Die)
TTITLE10=Can I See You Tonight?
TTITLE11=One Love at a Time
TTITLE12=Just Another Love
TTITLE13=I'll Come Back as Another Woman
TTITLE14=It's Only Over For You
TTITLE15=Love Me Like You Used to
TTITLE16=I Won't Take Less Than Your Love
TTITLE17=If It Don't Come Easy
EXTD=
EXTT0=
EXTT1=
EXTT2=
EXTT3=
EXTT4=
EXTT5=
EXTT6=
EXTT7=
EXTT8=
EXTT9=
EXTT10=
EXTT11=
EXTT12=
EXTT13=
EXTT14=
EXTT15=
EXTT16=
EXTT17=
PLAYORDER=
